<?xml version="1.0" standalone="no"?>
<!DOCTYPE svg PUBLIC "-//W3C//DTD SVG 1.0//EN"
	"http://www.w3.org/TR/2001/REC-SVG-20010904/DTD/svg10.dtd">
<svg viewBox="0 0 800 600" stroke="#ffffff" fill="none" stroke-width="1">
	<rect x="-200" y="-200" width="1200" height="1000" fill="#000000"/>
	<path id="okvir_omara"
		d="M16.1 55.3 L100.8 575.5 L257.2 458.3 L237.1 7.2 zM26 64.8 L106.8 559.2 L252.4 452
			L230 16.8 zM34.8 73.6 L111.6 547.2 L246.8 448.8 L225.2 24.8 zM107.6 527.2 L232.4
			439.2 L206.587 29.6444 M235.5 440 L110.5 530"/>
	<path id="okvir_vrata"
		d="M254.967 323.4 L240.4 13.6 L507.6 28.8 L455.6 529.6 L432.05 523.15 M249.624 46.8364
			L249.2 25.5636 L490.8 41.6 L446 516 L437.122 513.349 M246.691 55.3455 C246.517
			49.5013 256.773 34.8872 263.236 35.3818 L480.4 52 L442 508 L430 524.8 L259
			470.05 zM240.852 13.2778 L251.075 8.67647 L511.205 24.3627 L460.225 519.788
			L455.676 529.487"/>
	<path id="vratna_polica_zgoraj"
		d="M261.273 88.1091 L450.982 106.545 C456.548 107.086 462.628 113.984 462.291 118.4
			L454 227.127 C453.559 231.23 448.062 232.573 443.6 231.927 L263.345 202.364 C260.579
			201.91 257.826 199.37 257.709 195.309 L253.964 94.6182 C253.785 89.8119
			257.394 87.7321 261.273 88.1091 z"/>
	<path id="vratna_polica_sredina"
		d="M257.527 214.836 C257.406 209.142 260.104 206.375 264.4 207.091 L439.422 236.267
			C445.648 237.305 452.268 240.097 451.778 246.222 L439.6 398.4 C439.074 404.977
			429.767 413.523 422.166 411.451 L269.673 370.444 C265.18 369.236 260.656 362.496
			260.566 358.218 z"/>
	<path id="vratna_polica_spodaj"
		d="M263.2 468.25 L260.9 371.15 L425.65 415.2 C430.196 416.415 430.25 412.559 432.945
			413.655 C435.641 414.75 436.069 416.201 435.85 419.2 L428.45 520.7 z"/>
	<path id="vratna_ograda_zdoraj"
		d="M267.8 170.358 L267.092 158.139 C263.047 160.311 256.202 162.935 254.998 166.995
			C253.84 170.898 255.353 172.942 266.8 174.628 L431.914 198.943 C437.844 199.816
			455.752 199.633 456.365 192.387 L454.978 208.99 C449.873 212.155 443.492 215.987
			432.844 214.222 L262 185.9 C257.105 185.089 254.582 184.208 254.617 179.919
			C254.647 176.166 264.067 172.436 267.8 170.358 z"/>
	<path id="stikalce"
		d="M218.788 180.978 L220.364 200.189 L231.636 201.644 L230.727 182.251 zM221.97 189.433
			L222.455 193.371 L228.636 194.28 L227.909 190.16 z"/>
	<path id="sok_ribez"
		d="M277.761 234.633 C281.317 275.706 264.906 268.436 265.317 284.022 L267.317 359.911
			C267.924 374.614 298.557 377.966 305.428 364.8 L306.039 287.911 C306.217 265.551
			290.138 282.935 292.118 233.899 C291.776 228.649 278.053 228.63 278.112
			234.185 C278.171 239.74 292.609 239.221 291.994 234.856 M278.602 241.205 C277.772
			245.949 291.661 246.617 291.887 242.102" stroke="#ffa201"/>
	<path id="sok_fruc"
		d="M409.761 259.883 L409.264 270.768 C400.519 282.021 394.377 289.189 395.039 304.161
			C399.223 307.633 403.193 311.432 394.632 315.834 L393.983 393.633 C393.482
			408.365 435.306 411.784 440.62 396.421 L443.246 318.308 C437.541 317.384 439.031
			310.069 443.914 307.496 C444.413 298.268 444.661 286.215 432.223 271.313
			L432.317 259.133 C432.703 255.378 410.469 253.4 410.296 259.559 C410.122 265.718
			431.483 266.46 432.122 259.439 M409.817 270.91 C412.275 277.035 430.317 276.16
			431.525 272.16 M395.817 303.785 C405.15 310.535 427.567 317.16 442.775
			306.785 M395.317 316.035 C404.65 322.785 427.067 329.41 442.275 319.035 M394.942
			329.91 C404.275 340.66 426.692 343.285 441.9 332.91 M394.067 379.41 C403.4
			390.16 425.817 392.785 441.025 382.41" stroke="#ffa201"/>
	<path id="sok_ribez_1"
		d="M366.428 256.077 C369.984 297.15 351.795 289.88 352.206 305.466 L353.761 382.689
			C354.058 397.401 385.001 401.633 391.872 388.467 L395.15 307.578 C396.055 285.235
			380.582 304.379 382.562 255.343 C382.22 250.093 366.72 250.074 366.779 255.629
			C366.838 261.184 383.053 260.665 382.438 256.3 M367.269 262.649 C366.439
			267.393 382.105 268.061 382.331 263.546"/>
	<path id="vratna_ograda_sredina"
		d="M271.8 331.691 L271.592 319.472 C266.385 320.522 264.035 322.102 262.165 323.495
			C258.9 325.927 261.02 333.609 269.3 335.295 L417.747 373.499 C423.552 374.992
			441.585 374.189 442.198 366.943 L440.811 379.546 C435.811 381.865 429.325 386.043
			418.677 384.278 L266 345.733 C261.189 344.519 259.915 341.541 259.95 337.252
			C259.98 333.499 267.734 332.269 271.8 331.691 z"/>
	<path id="vratna_ograda_spodaj"
		d="M275.911 446.302 L275.87 436.917 C270.516 438.492 265.813 442.879 264.609 446.939
			C263.451 450.842 265.131 453.72 273.411 456.072 L403.358 497.554 C413.694 500.853
			425.03 500.077 430.143 489.831 L428.922 504.268 C425.75 508.753 417.11
			512.109 406.622 508.666 L271.611 464.344 C266.897 462.797 264.86 460.819 264.895
			456.53 C264.925 452.777 272.178 448.38 275.911 446.302 z"/>
	<path id="vratna_ograda_jajca"
		d="M251.737 60 C292.633 70.1993 394.666 80 464.987 80"/>
	<path id="vratna_polica_jajca"
		d="M264.273 39.7758 L465.149 56.2117 C470.722 56.6677 473.923 60.1339 471.124 63.5667
			L466.048 69.7947 L464.083 98.7103 C463.804 102.827 461.895 104.156 457.433
			103.51 L257.345 84.364 C254.555 84.097 251.576 83.37 251.459 79.309 L251.612
			54.9704 L258.964 43.2849 C259.974 41.6802 260.394 39.3988 264.273 39.7758 zM273.487
			55.75 C252.093 57.1037 262.877 91.0873 276.237 79 C283.613 72.326 286.167
			54.9476 273.487 55.75 zM296.987 59.25 C275.593 60.6037 286.377 94.5873 299.737
			82.5 C307.113 75.826 309.667 58.4476 296.987 59.25 zM320.987 61.25 C299.593
			62.6037 310.377 96.5873 323.737 84.5 C331.113 77.826 333.667 60.4476 320.987
			61.25 zM344.487 64.75 C323.093 66.1037 333.877 100.087 347.237 88 C354.613
			81.326 357.167 63.9476 344.487 64.75 zM368.987 66 C347.593 67.3537 358.377
			101.337 371.737 89.25 C379.113 82.576 381.667 65.1976 368.987 66 zM394.737 69
			C371.593 68.3537 384.127 104.337 397.487 92.25 C404.863 85.576 407.437 69.3547
			394.737 69 zM419.987 71.25 C396.843 70.6037 409.377 106.587 422.737 94.5
			C430.113 87.826 432.687 71.6047 419.987 71.25 zM447.987 74 C424.843 73.3537 437.377
			109.337 450.737 97.25 C458.113 90.576 460.687 74.3547 447.987 74 z"/>
	<path id="okvir_zunanji"
		d="M101.556 577.822 L104.444 604.978 L133.156 586.267 L131.6 564 L234.756 486.133 L236.578
			508.222 L259.733 488.178 L259.289 471.378 M103.663 605.9 L-9.65548 492.127
			M14.9809 54.9545 L-18.8373 41.5 M237.163 6.8 L107.617 -5"/>
	<path id="zmrzovalnik"
		d="M209.752 114.513 L62.0856 163.68 L50.2522 72.2632 L204.752 32.5132 zM60.5022 85.5132
			L69.0022 149.513 L200.002 107.513 L194.502 52.0132 zM62.0856 163.569 L51.693
			158.464 L43.5022 73.0132 L50.0022 71.7632"/>
	<path id="podplat_zmrzovalnika"
		d="M205.846 116.903 L206.132 126.903 L83.5601 172.046 L82.703 158.046 M192.703 133.189
			L198.132 134.903 L54.4173 190.903"/>
	<path id="lucka"
		d="M145.378 188.133 L125.378 179.911 L123.6 157.689 L144.044 164.133 z"/>
	<path id="lucka_okvir"
		d="M145.378 188.578 L181.429 201.36 L192.267 194.356 L191.6 166.578 L137.822 152.8 L124.933
			157.244 M191.156 168.133 L179.78 175.73 L144.489 164.356 M179.438 176.578
			L180.549 201.022"/>
	<path id="polica_steklena"
		d="M99.4133 458.933 L214.08 386.933 L116.747 338.267 L81.4133 356.933"/>
	<path id="polica_spodnja"
		d="M90.08 411.6 L214.747 338.933 L111.413 292.267 L73.4133 309.6 M209.123 341 L108.54
			294.25 M203.373 344.417 L103.207 296.083 M197.207 348.25 L97.4567 298.417 M191.123
			352.083 L92.1233 301 M183.707 356.667 L85.9567 304.583 M176.373 360.667
			L80.2067 307.167 M170.373 364.667 L75.29 310.667 M162.373 368.583 L74.79 318.5
			M155.707 372.667 L75.7067 326.667 M149.207 375.917 L77.79 334.667 M142.707
			380 L78.79 342.167 M135.707 384.667 L80.04 350.167 M129.623 388.583 L81.7067
			360 M121.957 392.667 L83.4567 368.25 M114.707 396.667 L84.04 377.167 M107.123
			401 L86.04 385.667 M101.04 404.667 L87.79 394.417 M93.6233 409.333 L88.3733
			405.417"/>
	<path id="polica_srednja"
		d="M81.4133 348.267 L211.413 281.6 L104.08 243.6 L66.7467 259.6 M207.123 283.75 L100.79
			244.75 M199.123 287.167 L95.707 246.583 M192.457 290.75 L90.4567 249.167
			M185.123 294.083 L86.1233 251.25 M178.707 297.667 L81.7067 253.333 M170.873 301.667
			L75.4567 255.667 M163.873 305.167 L69.79 259.167 M156.623 308.833 L66.04
			263.5 M150.207 312.667 L67.7067 270.917 M143.457 316.667 L68.79 278.917 M136.457
			320 L70.04 286.667 M128.457 323.917 L71.54 294.417 M121.373 327.083 L72.4567
			303.25 M113.457 332.167 L74.2067 312.25 M104.457 336.417 L75.29 320.167
			M95.373 341 L77.04 329.667 M88.04 343.917 L78.79 339.417 M82.1233 347.833 L79.6233
			346.917"/>
	<path id="polica_gornja"
		d="M70.08 282.933 L208.08 218.267 L100.08 183.6 L56.08 202.267 M202.971 220.011 L97.7248
			184.543 M194.971 223.7 L92.6418 186.376 M187.49 227.283 L87.3915 188.417
			M180.156 230.616 L82.7863 191.315 M173.468 234.2 L77.5545 193.67 M165.906 237.113
			L71.3045 196.547 M158.634 241.156 L64.5509 198.417 M151.112 244.55 L58.8987
			200.848 M144.424 248.113 L57.0328 206.634 M136.587 251.569 L57.3009 214.091
			M128.772 254.902 L59.3661 222.656 M121.044 258.276 L59.7791 229.591 M113.688
			261.985 L60.9676 236.522 M104.957 265.982 L62.7176 244.435 M95.6853 269.96
			L63.5291 252.624 M87.1447 274.272 L66.0943 262.939 M78.453 278.819 L66.7574
			271.602 M71.4494 281.376 L68.9494 279.917"/>
</svg>
