<?xml version="1.0" standalone="no"?>
<!DOCTYPE svg PUBLIC "-//W3C//DTD SVG 1.1//EN"
  "http://www.w3.org/Graphics/SVG/1.1/DTD/svg11.dtd">
<svg viewBox="0 0 1666 1150" id="soba" fill="none" stroke="white" stroke-width="2" version="1.1" xmlns="http://www.w3.org/2000/svg" xmlns:xlink="http://www.w3.org/1999/xlink">

	<a xlink:href="http://www.titoville.com/">
	<g stroke="#FFA500" fill="#000000">
		<set attributeType="XML" attributeName="fill" to="#402900" begin="mouseover"/>
		<set attributeType="XML" attributeName="fill" to="#000000" begin="mouseout"/>
		<g id="Tito">
			<path d="M877.118 147.059L881.824 335.294L1017.12 338.824L1018.29 127.059z"/>
			<path fill="none" d="M887.706 154.118L887.706 325.882L1004.18 327.059L1004.18 141.176zM894.765 314.118L998.294 312.941L1000.65 247.059L979.471 225.882L920.647 309.412L939.471 243.529L937.118 237.647C920.267 237.647 919.677 237.463 907.295 248.607C894.912 259.751 894.765 314.118 894.765 314.118zM934.765 234.01C901.027 161.572 1004.06 117.744 979.392 221.638M941.019 173.853C977.657 173.327 930.702 193.947 969.969 197.304C1009.24 200.66 939.696 197.422 939.696 197.422C953.814 213.639 918.332 206.398 934.765 196.735"/>
		</g>
	</g></a>
	<path id="my_bed"
		d="M1072.83 836.681C787.599 1180.5 182.242 1153.02 -56.6198 976.267L-51.0813 803.529C-48.1215 711.218 57.7657 687.714 150.845 610.04C347.936 621.62 551.783 620.332 813.713 576.606C813.713 576.606 1051.75 638.81 1071.29 673C1075.78 680.853 1077.2 678.421 1076.91 705.024z"/>
	<path id="my_bed_jogi" d="M16.3703 950.242M-27.2644 761.626C54.348 707.178 106.29 673.96 150.946 633.168C281.555 656.901 569.741 653.559 813.713 598.545C887.049 623.724 967.363 646.796 1045.61 671.545C669.739 862.176 306.786 833.543 -27.2644 761.626z"/>
	<path id="my_bed_ostalo" d="M-48.8467 865.522C268.813 966.851 690.772 978.356 1070.03 753.758L1071.52 701.496C811.454 876.994 385.591 941.904 -47.2279 811.029z"/>
	<path id="my_bed_predal" d="M536.922 1090.89 C839.92 1055.93 949.857 949.303 1037.58 869.313 L1039.07 777.718 C825.993 888.975 682.36 913.06 536.541 932.185 zM966.982 842.613 C966.982 842.613 979.595 844.674 979.635 870.33 C979.675 896.016 967.671 898.16 967.671 898.16 L967.671 889.4 C967.671 889.4 972.733 884.385 972.975 870.04 C973.205 855.695 966.583 851.083 966.583 851.083 zM677.724 956.002 C677.724 956.002 688.352 958.141 688.405 992.291 C688.46 1026.48 678.642 1029.93 678.642 1029.93 L678.642 1018.28 C678.642 1018.28 681.764 1011 682.086 991.905 C682.392 972.81 677.193 967.275 677.193 967.275 z"/>
	<path id="lamp_bed" d="M757.944 407.211C764.33 412.229 761.378 412.636 768.997 415.852C776.615 419.067 798.111 415.4 798.321 399.251C798.468 387.965 791.503 385.745 785.543 383.754M755.979 396.408C750.392 427.137 816.933 390.486 774.355 380.809C769.628 379.735 768.658 372.704 766.875 369.137M747.008 383.035C776.126 392.04 770.71 355.834 752.355 369.182C737.777 379.784 748.781 387.051 756.028 396.713M747.396 372.61C731.832 357.888 720.184 402.601 748.035 389.738M768.235 380.182L776.663 388.468M764.044 384.372L774.187 395.325M759.33 386.61L768.33 397.991M753.456 387.37L762.456 399.941"/>
	<path id="vratnica_leva" d="M1122.12 25L1120.12 842.385L1128.45 844.052L1133.12 25M1128.12 843.665L1141.12 817.12L1145.12 24"/>
	<path id="dor" d="M1296.12 723L1298.12 124L1524.12 124L1519.12 717zM1303.33 400.236L1303.55 465.455L1311.69 465.354L1311.79 400.383zM1306.24 426.479L1306.22 395.067L1308.94 395.067L1308.96 426.441zM1307.5 446.237C1315.6 446.237 1314.45 457.272 1307.5 457.018C1300.55 456.763 1299.4 446.237 1307.5 446.237z"/>
	<path id="deska" d="M1146.12 733.28L1274.12 727.28L1276.12 169.28L1147.12 170.28"/>
	<path id="chuk's" d="M2866.18 10.04C2866.37 16.664 2872.27 99.084 2868.18 106.04C2866.11 109.547 2860.76 109.899 2858.18 113.04C2849.17 123.977 2851.39 163.251 2861.18 173.04C2863.94 175.799 2868.55 178.489 2872.18 177.04C2880.92 173.544 2872.59 153.515 2875.18 147.04C2879.99 135.008 2896.77 106.814 2870.57 106.814M2885.9 125.967C2887.65 128.404 2887.99 137.394 2895.81 134.126C2903.63 130.858 2923 157.213 2877.33 173.823"/>
	<path id="disketa_leteca" d="M2851.13 143.369C2848.82 165.337 2849.34 186.771 2849.34 208.832L2836.7 230.276L2851.37 251.721L2866.94 227.342L2851.83 208.333M2860.71 237.333L2852.27 226.222L2845.49 235.222L2853.6 246.111"/>
	<path id="vratnica_desna" d="M1596.28 24.2667L1595.48 838.244L1587.08 838.244L1589.48 23.8667M1586.55 838.244L1564.96 826.345L1567.62 24"/>
	<a xlink:href="freezer.svgz">
	<g stroke="#FFA500" fill="#000000">
		<set attributeType="XML" attributeName="fill" to="#402900" begin="mouseover"/>
		<set attributeType="XML" attributeName="fill" to="#000000" begin="mouseout"/>
		<g id="hladilnik">
			<path d="M2669.86 368.991L2667.66 749.875L2808.26 800.452L2931.66 745.697L2931.66 367.03L2808.37 363.828z"/>
			<path fill="none" d="M2931 366.629L2808.6 373.829L2670.6 368.629M2808.57 799.648L2807.9 374.315M2830.04 436.894L2823.52 437.438L2823.52 444.503L2830.04 443.959M2830.04 555.372L2824.61 556.459L2824.61 562.438L2830.58 561.894M2831.13 436.894L2831.67 561.351L2836.56 560.264L2837.11 436.351zM2918.16 752.404L2916.98 782.329L2904.69 789.787L2901.68 767.149L2889.65 772.552L2889.58 765.924M2847.56 784.469L2847.64 789.294L2833.83 796.157L2829.68 822.533L2814.82 830.575L2814.05 800.499M2814.59 831.232L2770.96 813.414"/>
		</g>
	</g></a>
	<path id="zvocnik" fill="#000000" d="M2585.91 669.769L2588.91 398.034L2654.94 392.122L2720.78 396.241L2720 709.122"/>
	<path id="zvocnik_ostalo" d="M2648.15 651.652L2649.21 403.334M2690.5 420C2714.23 419.052 2713.96 468.351 2690.5 472C2664.78 476 2652.95 421.5 2690.5 420zM2687.5 536.5C2715.55 537.279 2715.55 584.831 2687.5 584C2653.77 583 2660.55 535.751 2687.5 536.5zM2689 493C2702.06 493 2702.06 515 2689 515C2675.94 515 2675.94 493 2689 493zM2685.5 606C2705.92 605 2713.98 643 2685.5 643C2661.63 643 2661.66 607.168 2685.5 606zM2693.33 448.233C2693.33 463.085 2682.33 462.085 2681.33 448.233C2680.33 434.381 2693.33 433.381 2693.33 448.233zM2686.5 548C2698.92 548 2698.92 569 2686.5 569C2674.08 569 2674.08 548 2686.5 548zM2691 504.5C2691 508.912 2685.61 508.751 2686 504.5C2686.29 501.424 2691 501.138 2691 504.5zM2719.37 396.215L2649.63 402.756L2589.37 396.615"/>
	<path id="postelja_cimer" fill="#000000" d="M1665.14 648.32C1651.24 660.04 1643.47 672.033 1643.14 700.32L1641.14 823.32C2087.66 1082.06 2323.77 1100.59 2769.53 925L2768.32 755.051C2768.07 720.028 2752.93 713.615 2738.53 701C2706.5 672.945 2665.41 641.687 2559.03 586.63C2236.41 632.504 2067.55 596.424 1864.18 559C1864.18 559 1689.32 627.942 1665.14 648.32z"/>
	<path id="postelja_cimer_jogi" d="M1862.86 579.425L1672.92 663.599C1922.63 777.285 2286.77 862.712 2747.02 727.425L2558.02 627.425C2335.91 663.95 2095.74 646.327 1862.86 579.425z"/>
	<path id="postelja_cimer_ostalo" d="M1649.75 700.092L1648.08 749.758C1886.49 866.481 2310.01 998.085 2758.69 831.425L2759.69 766.425C2420.46 884.09 1991.29 880.66 1649.75 700.092z"/>
	<path id="postelja_cimer_predal" d="M1666.35 763.225 L1665.08 832.691 C1800.19 905.842 2035.34 1047.75 2304.02 1036.09 L2303.02 914.092 C1977.79 906.757 1809.89 823.993 1666.35 763.225 zM1751.14 817.515 C1751.14 817.515 1742.14 817.978 1741.14 839.182 C1740.14 860.386 1750.47 862.182 1750.47 862.182 L1750.47 856.182 C1750.47 856.182 1744.94 852.037 1745.14 840.182 C1745.33 828.326 1750.81 824.515 1750.81 824.515 zM2150.32 935.182 C2150.32 935.182 2143.97 946.844 2142.97 968.048 C2141.97 989.253 2148.85 1001.05 2148.85 1001.05 L2148.85 995.048 C2148.85 995.048 2146.78 980.904 2146.97 969.048 C2147.16 957.193 2149.99 942.182 2149.99 942.182 z"/>
	<path id="miza_cimer" d="M3071.34 515.576L3165.36 597.098L3420.25 557.967L3252.86 500.358zM3077.86 529.706L3076.76 718.872L3082.2 718.872L3084.92 536.771L3165.9 612.315L3163.18 856.88L3174.6 859.054L3176.77 610.141L3402.86 574.271L3402.31 801.445L3419.71 801.989L3418.62 561.228"/>
	<path id="okno_cimer" d="M3387.35 441.345L3278.35 426.345L3253.35 28.4961L3364.35 21.3446zM3404.35 471.345L3265.35 450.345L3237.35 8.52638L3380.35 -1.65544zM3406.35 454.345L3403.35 11.3446L3379.35 11.3446M3381.12 246.167L3382.29 268.667L3390.62 269L3389.79 246.667zM3387.29 260L3365.45 259L3365.79 253L3386.95 253.333z"/>
	<path id="okno_moje" d="M3472.35 441.345L3683.35 433.345L3684.35 21.3446L3475.35 21.3446zM3446.35 467.345L3700.35 459.345L3704.35 -0.655437L3449.35 -1.65544zM3453.35 243.845L3454.89 264.939L3468.35 265.345L3467.35 243.534zM3458.8 252.522L3461.57 291.495L3467.2 290.456L3464.4 252.85z"/>
	<path id="kos" d="M3274 712.471L3289 807.471C3310.76 816.528 3332.25 822.221 3364 804.471L3380 707.471C3381.58 681.797 3261.75 686.556 3277 720.471C3283.44 734.783 3370.57 742.132 3377 713.471"/>
	<path id="miza_moja" d="M3556 547.471C3613.82 581.624 3725.5 623.471 3838 639.471L4010 572.471L3758 521.471zM4010.44 574.958L3900.04 620.158C3887.87 624.858 3880.67 659.687 3901.64 670.958M3913.24 664.158C3885.9 656.558 3897.21 627.929 3904.44 625.758L3959.64 604.158L3949.64 637.758M3959.24 631.758L3967.24 600.158L4008.84 582.158"/>
	<path id="predali_moji" d="M3740 621.36L3740 666.36L3838 691.36L3840 640.36M3739.6 669.76L3739.8 717.76L3814.6 735.76M3838.2 710.36L3838.2 692.96M3739.6 721.36L3739.2 772.56L3790.4 785.16M3780.27 699.858L3772.72 706.969L3794.05 711.858L3801.16 705.191M3772.72 749.636L3765.61 755.413L3789.61 760.302L3797.16 754.08M3796 649.5C3796 655.385 3786.6 655.355 3786 649.5C3785.11 640.793 3796 643.904 3796 649.5z"/>
	<path id="monitor" d="M3646 520.471C3668.61 529.153 3737.99 553.255 3800 543.471C3801.96 516.409 3805.33 421.789 3806 389.471C3773.03 378.726 3692.76 373.573 3657 372.471C3651.21 396.941 3646 520.471 3646 520.471zM3668 391.471C3662 426.471 3662.39 470.305 3661 495.471C3692.48 505.154 3751.87 512.175 3782 515.471C3781.89 485.563 3784.85 438.81 3789 403.471C3749.81 398.538 3706 393.471 3668 391.471zM3806 388.552C3814.32 385.85 3817.13 381.241 3820.92 384.39C3827.67 389.996 3816.62 538.552 3816.62 538.552L3802 542.471M3824 418.471L3838 433.471L3837 477.471L3818 525.471M3817.08 382.445C3793.3 376.499 3661.41 370.012 3661.41 370.012"/>
	<path id="okenska_stena" d="M3420.81 -13.3324L3420.81 780.607M3714.63 478.334L3443.63 486.668L3442.57 762.91L3490.51 748.849M3404.15 488.183L3267.81 464.456L3270.69 681.395L3410.69 774.94z"/>
	<path id="stene" d="M3261.9 687.705C3181.17 705.738 3034.71 722.115 2938.95 720.492M2891.41 346.721L2893.05 36.8852M1863.03 551.078L1864.71 33.6066M1637.94 820.692L1597.94 837.359L1597.94 827.359L1638.61 809.359M1075.48 839.359L1114.93 847.359L1118.26 837.359L1076.15 830.692M815.944 568.139L816.944 29.1386"/>
	<path id="stol_cimrov" d="M3101.02 546.827L3101.79 680.673L3101.79 830.673L3108.71 829.904L3110.25 682.212L3107.94 546.058zM3079.48 773.75L3083.33 529.135L3087.17 529.135L3086.4 774.519zM3114.1 689.135L3240.25 669.904L3244.87 809.904L3254.1 809.904L3247.17 661.442L3114.1 677.596zM3115.64 677.596L3083.33 622.212L3191.79 604.519L3246.4 659.135M3188.71 677.981L3187.94 760.288L3194.87 760.288L3197.94 678.75"/>
	<path id="polica_cimrova" d="M1612.93 335.345L1845.69 331.897L2412.93 328.448L2412.93 338.793L1845.69 342.241L1614.17 345.69zM1612.93 243.966L1848.5 253.392L2418.79 249.138L2417.72 238.897L1849.58 243.497L1613.09 233.621zM2273.72 407.414L2272.93 343.241L2246.82 343.69C2278.55 344.621 2270 374.483 2273.72 407.414zM2275 325L2274.44 250.69L2247 249.414C2277.08 246.294 2266.45 281.198 2275 325zM1997.41 412.931L1996.96 344.603L1965.51 344.807C1999.57 350.969 1988.35 376.335 1997.41 412.931zM1994.13 325L1993.48 252.748L1954.26 253.394C2007.16 253.904 1984.16 294.599 1994.13 325z"/>
	<path id="polica_moja" d="M150.38 229.688C385.536 217.969 662.098 232.031 851.942 250L853.505 262.5C677.723 244.141 382.411 229.297 150.38 239.063zM151.942 328.125L853.505 334.375L853.505 346.875L151.942 340.625zM302.616 238.833L300.609 325.764L307.214 325.889L309.109 238.618zM755.956 253.88L755.923 333.506L763.075 333.405L763.435 254.449z"/>
	<path id="keyboard" d="M3614.23 568.179C3652.16 580.95 3722.02 594.492 3769.95 598.596L3811.8 561.196C3769.23 557.963 3700.1 547.496 3662.87 536.929zM3811.5 561.046L3811.63 574.241L3771 598.496M3665.28 543.973L3636.62 563.973M3674.28 546.973L3645.62 566.973M3682.95 548.973L3654.29 568.973M3691.28 551.64L3662.62 571.64M3701.95 552.973L3673.29 572.973M3711.95 554.973L3683.29 574.973M3721.28 556.973L3692.62 576.973M3729.95 558.973L3701.29 578.973M3739.28 560.973L3710.62 580.973M3748.62 563.64L3719.96 583.64M3636.53 564.333C3662.76 573.222 3696.55 580.428 3720.98 583.889M3642.2 559.666C3668.43 568.555 3702.22 575.761 3726.65 579.222M3647.97 555.889C3674.2 564.778 3707.99 571.984 3732.42 575.445M3653.75 552.333C3679.98 561.222 3713.77 568.428 3738.2 571.889M3658.64 547C3684.87 555.889 3718.66 563.095 3743.09 566.556M3663.97 543.444C3690.2 552.333 3723.99 559.539 3748.42 563M3769.28 565.64L3745.29 585.64M3780.62 566.973L3755.96 586.973M3789.95 568.306L3767.29 588.973M3745.96 585.756L3768.18 589.311M3749.52 580.312L3771.74 583.867M3754.85 575.423L3777.07 578.978M3762.4 569.645L3784.62 573.2M3766.4 564.756L3788.62 568.311"/>
	<a xlink:href="http://www.microsoft.com/hardware/">
	<g stroke="#FFA500" fill="#000000">
		<set attributeType="XML" attributeName="fill" to="#402900" begin="mouseover"/>
		<set attributeType="XML" attributeName="fill" to="#000000" begin="mouseout"/>
		<g id="mouse">
			<path d="M3837.45 602.283 C3841.35 575.6 3782.78 590.295 3781.37 606.876 C3791.51 613.833 3835.22 612.003 3837.4 602.189"/>
			<path fill="none" d="M3835.24 603.022 C3822.97 598.772 3814.36 603.573 3812.21 609.482M3814.86 593.947 C3819.41 593.058 3822.85 591.583 3830.31 594.028M3816.82 597.927 C3816.82 597.927 3826.58 595.381 3833.59 597.927M3784.52 602.906 C3784.52 602.906 3793.05 603.712 3790.41 609.018M3841 598.129 C3851.01 591.122 3853.16 595.244 3863.33 596.129 C3870.52 596.754 3882.79 595.925 3880.33 585.129 C3877.76 573.792 3862.17 578.741 3856 571.795 C3851.63 566.879 3857.06 558.536 3853 553.129 C3846.56 544.535 3822.67 544.795 3822.67 532.129"/>
		</g>
	</g></a>
	<path id="my_chair" d="M3548.33 553.667L3565.67 665.321L3561.54 881.064L3568.2 880.333L3573.06 664.333L3553.67 548.333zM3465.28 529.667L3479 641.281L3475.35 828.333L3482.61 829.779L3487.47 639.948L3471.86 528.59zM3569.67 716.333C3546.53 695.426 3504.56 678.83 3484.33 673.667C3510.05 661.568 3611.64 646.609 3653.67 649.667C3671.18 660.629 3729.19 683.52 3723.22 692.245M3574.65 721.667C3574.65 721.667 3711.41 694.939 3720.42 700.462C3729.43 705.984 3717.84 849.45 3717.84 849.45L3725.49 850.655C3725.49 850.655 3733.27 707.906 3725.67 696.333C3718.06 684.76 3573.92 712.679 3573.92 712.679M3652.08 710.438L3649.67 797.667L3655.99 798.671L3658.44 709.884M3484.68 605.329C3493.94 614.743 3536.29 620.512 3554.74 611.257M3567.52 609.225L3556.38 538.725C3502.83 542.108 3479.16 531.736 3472.28 518.52L3471.51 525.281"/>
	<path id="svetilka_namizna_moja" d="M4037.47 361.689L4049.92 363.466L4051.25 409.466L4038.58 408.8zM4045.92 392.133L4027.47 392.133L4027.92 371.022L4044.58 371.466zM4032.75 382.466L3996.25 415.966L3957.92 346.133L3898.75 401.966L3858.58 329.466L3803.25 379.466L3759.75 305.633L3766.25 300.8L3805.25 365.466L3859.92 316.8L3899.92 386.633L3960.58 330.3L3998.42 402.633L4023.08 381.133L4003.92 354.8L3947.25 409.133L3907.25 336.133L3853.42 387.633L3812.58 314.133L3786.92 334.466L3784.25 327.3L3815.25 301.466L3855.25 372.8L3909.25 322.466C3909.25 322.466 3949.92 392.8 3949.92 392.133C3949.92 391.466 4005.08 343.466 4005.08 343.466zM3737.99 313.353C3753.07 304.446 3750.59 297.299 3734.79 293.281M3748.7 305.476L3757.93 305.169L3765.7 300.202L3764.04 293.985L3747.85 297.247zM3769.12 346.383C3763.96 326.987 3754.59 319.282 3736.39 317.775L3732.77 291.621L3725.55 290.769L3725.14 282.54L3719.42 281.949L3720.12 291.564L3713.04 293.871L3714.7 326.684C3700.84 333.615 3701.74 362.943 3710.29 370.844C3730.9 372.846 3758.57 361.452 3769.12 346.383z"/>
	<a xlink:href="http://www.mp3.com">
	<g stroke="#FFA500" fill="#402900">
		<set attributeType="XML" attributeName="fill" to="#402900" begin="mouseover"/>
		<set attributeType="XML" attributeName="fill" to="#000000" begin="mouseout"/>
		<path id="CD-ji" d="M154.139 276.01L154.133 325.82L157.818 326.01L157.913 276.105zM159.619 282.335L176.704 325.963L180.389 326.153L163.393 282.43zM165.905 282.335L182.99 325.963L186.675 326.153L169.679 282.43zM188.996 276.439L188.99 326.249L192.675 326.439L192.77 276.534zM195.282 276.439L195.276 326.249L198.961 326.439L199.056 276.534zM201.282 276.439L201.276 326.249L204.961 326.439L205.056 276.534zM207.269 276.53L207.263 326.34L210.948 326.53L211.043 276.625zM213.555 276.53L213.549 326.34L217.234 326.53L217.329 276.625zM219.555 276.53L219.549 326.34L223.234 326.53L223.329 276.625zM225.814 276.894L225.808 326.704L229.493 326.894L229.588 276.989zM232.1 276.894L232.094 326.704L235.779 326.894L235.874 276.989zM238.1 276.894L238.094 326.704L241.779 326.894L241.874 276.989zM243.996 276.53L243.99 326.34L247.675 326.53L247.77 276.625zM250.282 276.53L250.276 326.34L253.961 326.53L254.056 276.625zM256.282 276.53L256.276 326.34L259.961 326.53L260.056 276.625zM261.814 276.894L261.808 326.704L265.493 326.894L265.588 276.989zM268.1 276.894L268.094 326.704L271.779 326.894L271.874 276.989zM274.1 276.894L274.094 326.704L277.779 326.894L277.874 276.989zM281.451 276.894L281.445 326.704L285.13 326.894L285.225 276.989zM287.737 276.894L287.731 326.704L291.416 326.894L291.511 276.989zM293.737 276.894L293.731 326.704L297.416 326.894L297.511 276.989zM248.465 274.572L298.275 274.578L298.465 270.893L248.56 270.798zM248.465 268.286L298.275 268.292L298.465 264.607L248.56 264.512zM248.465 262.286L298.275 262.292L298.465 258.607L248.56 258.512zM248.132 256.239L297.942 256.245L298.132 252.56L248.227 252.465zM248.132 249.953L297.942 249.959L298.132 246.274L248.227 246.179zM248.132 243.953L297.942 243.959L298.132 240.274L248.227 240.179zM187.132 256.436L236.942 256.442L237.132 252.757L187.227 252.662zM187.132 250.15L236.942 250.156L237.132 246.471L187.227 246.376zM187.132 244.15L236.942 244.156L237.132 240.471L187.227 240.376zM191.465 274.769L241.275 274.775L241.465 271.09L191.56 270.995zM191.465 268.483L241.275 268.489L241.465 264.804L191.56 264.709zM191.465 262.483L241.275 262.489L241.465 258.804L191.56 258.709z"/>
	</g>
	</a>
	<a xlink:href="http://www.fabula.it/benni/main.html">
	<g stroke="#FFA500" fill="#000000">
		<set attributeType="XML" attributeName="fill" to="#402900" begin="mouseover"/>
		<set attributeType="XML" attributeName="fill" to="#000000" begin="mouseout"/>
		<g id="knjige">
			<path d="M744.672 256.246L734.527 330.246L745.618 331.41L754.527 257.301zM744.881 256.255L720.452 254.073L709.015 330.298L734.84 330.298"/>
			<path d="M717.217 258.755L715.981 331.119L732.345 330.828L732.163 259.082z"/>
			<path d="M707.762 253.21L705.981 330.664L713.981 331.101L714.345 253.537zM707.666 253.284L679.952 251.387L680.134 331.23L706.796 330.812"/>
			<path d="M693.489 258.028L697.89 330.755L703.526 331.192L697.709 258.355zM685.398 257.392L689.799 330.119L695.435 330.556L689.618 257.719z"/>
			<path d="M677.034 257.573L681.435 330.3L687.071 330.737L681.254 257.9zM676.481 257.529L629.077 258.402L640.605 329.765L682.065 330.145"/>
			<path d="M659.216 250.664L673.254 330.119L678.89 329.647L663.436 249.719z"/>
			<path d="M646.671 251.574L664.89 330.664L669.981 330.192L655.072 250.264zM637.216 251.392L656.89 330.664L662.345 329.829L642.163 250.446z"/>
			<path d="M629.034 250.937L648.708 330.391L654.344 328.828L633.981 250.173z"/>
			<path d="M621.761 250.574L640.89 330.209L646.344 329.192L626.163 249.991zM621.618 250.173L600.891 249.992L619.765 329.178L641.058 330.553"/>
			<path d="M607.761 262.21L627.617 330.573L637.435 327.737L617.981 257.082zM607.709 261.991L573.891 261.809M618.345 256.173L572.254 254.931L590.24 327.209L627.685 328.876"/>
			<path d="M606.487 273.971L575.78 272.557L591.754 330.407L612.574 330.209M596.67 278.937L613.072 330.209L622.89 327.373L606.89 273.809z"/>
			<path d="M576.215 247.028L596.981 330.3L604.435 328.373L580.254 245.9zM575.345 246.355L553.345 246.173L569.043 329.723L596.796 329.987"/>
			<path d="M556.095 257.855L546.095 257.673L544.293 329.612L559.212 330.376M556.672 258.119L555.436 330.483L571.8 330.192L571.618 258.446z"/>
			<path d="M537.095 277.855L527.095 277.673L525.515 329.612L536.573 329.265M537.035 278.119L535.799 329.392L552.163 329.101L551.981 278.446z"/>
	>	</g>
	</g>
	</a>

	<path id="okno_nad_vrati" d="M1298.43 24.1152L1297.43 116.115L1525.43 115.115L1526.43 27.1152"/>
	<path id="didjeredoo" d="M1206.25 208.115L1201.43 218.388C1211.75 381.888 1223.87 478.573 1219.43 573.115L1241.79 571.57C1245.92 433.834 1227.54 303.025 1221.34 213.57L1217.07 206.661zM1202.3 220.059L1221.84 220.448M1201.91 224.105L1222.28 224.833M1202.22 228.469L1222.58 229.257M1217.66 436.786L1238.84 435.539M1217.27 440.832L1239.28 439.924M1217.58 445.196L1239.58 444.348M1218.57 449.331L1239.75 448.084M1218.18 453.377L1240.19 452.469M1220.21 561.059L1241.39 559.812M1219.82 565.105L1241.83 564.197M1220.13 569.469L1242.13 568.621"/>
	<a xlink:href="clock.svg">
	<g stroke="#FFA500" fill="#000000">
		<set attributeType="XML" attributeName="fill" to="#402900" begin="mouseover"/>
		<set attributeType="XML" attributeName="fill" to="#000000" begin="mouseout"/>
		<path id="clock" d="M670.26 593.746L694.731 590.688L694.731 565.82L670.021 568.445zM688.411 585.437L682.387 580.743L682.387 574.594"/>
	</g></a>

</svg>