<?xml version="1.0" standalone="no"?>
<!DOCTYPE svg PUBLIC "-//W3C//DTD SVG 1.1//EN"
  "http://www.w3.org/Graphics/SVG/1.1/DTD/svg11.dtd">
<svg viewBox="0 0 800 600" onload="on_load()" stroke-width="2" stroke="#ffffff" fill="none" version="1.1" xmlns="http://www.w3.org/2000/svg" xmlns:xlink="http://www.w3.org/1999/xlink">
	<title>Rattus pubis</title>
	<desc>Estatika grdega in ostalo</desc>
	<!-- ECMAScript for preloading of svg subpages -->
<script> <![CDATA[

// definition of URL-s for subpages
var prelo_file_p=new Array("soba.svgz","tloris.svgz","IzI_fonts.svgz");
var prelo_p_cnt=0;
var misja_tipka="false";
var kot_sobe=16;

function on_load() {
	paralel_preload();
}

function after_load() {
	obrni_sobo(kot_sobe);
	document.getElementById('stran_naslovna').setAttribute("display","none");
	document.getElementById('stran_soba').setAttribute("display","inline");
}

function paralel_preload() {
	for (i=0; i<prelo_file_p.length; i++) {
		getURL(prelo_file_p[i],callback_paralel);	// starts loading of subpages simultaneously (paralely)
		event_log('preload_start: '+prelo_file_p[i]);
	}
}

function callback_paralel(urlRequestStatus) {
	if (urlRequestStatus.success==true) {
		var prelo_node = parseXML(urlRequestStatus.content,document);
		event_log('preload_id: '+prelo_node.firstChild.id);		// logs the id of the svg element of the downloaded svg subpage
		document.getElementById('area_'+prelo_node.firstChild.id).appendChild(prelo_node);
		// appends the preloaded subpage to the main inside a element with id="area"+id (of preloaded document's root svg element
		prelo_p_cnt++;
	}
	if (prelo_p_cnt==2){
		after_load();}
}

// these is my event log function intended for debugging
// it needs some svg code that is located on the bottom (all the styling is done in the svg part)
function event_log(text) {
	var event = document.getElementById('event_log');
	var new_event=event.cloneNode(1);
	new_event.removeAttribute('id');
	new_event.getFirstChild().setData(text);
	event.parentNode.appendChild(new_event);
}

//===============================================================================
//	funkcije za tipke na vrhu zaslona
//===============================================================================

function levo() {
	if (kot_sobe==0)
		obrni_sobo(35);
	else
		obrni_sobo(kot_sobe-1);
}

function tloris() {
	open_window('area_tloris');
}

function desno() {
	if (kot_sobe==35) obrni_sobo(0);
	else obrni_sobo(kot_sobe+1);
}

//===============================================================================
//	funkcije za delo z tlorisom
//===============================================================================

function stisk_tipke() { misja_tipka="true"; }

function spust_tipke() { misja_tipka="false"; }

function klik_kazalec(kot) {
	document.getElementById('zasuk_torte').setAttribute("transform",'rotate('+kot*10+')');
	obrni_sobo(kot); }

function preko_kazalec(kot) {
	document.getElementById('kazalec_torte').setAttribute("transform",'rotate('+kot*10+')');
	if (misja_tipka=="true") {
		document.getElementById('zasuk_torte').setAttribute("transform",'rotate('+kot*10+')'); 
		obrni_sobo(kot); } }

function obrni_sobo(kot) {
	var x=-2400+kot*106.6;
	document.getElementById('area_soba').setAttribute("viewBox",x+" 0 1666 1150");
	kot_sobe=kot; }

//===============================================================================
//	funkcije za odpiranje in zapiranje novih oken
//===============================================================================
var current_window=null;
function open_window(text) {
	document.getElementById(text).setAttribute("display","inline");
	current_window=text;
}

function close_window() {
	if (current_window != null) {
		document.getElementById(current_window).setAttribute("display","none");
		current_window = null;
	}
}

]]></script>

<defs id="area_IzI_fonts"/>

<rect x="-200" y="-200" width="4000" height="1000" fill="pink" stroke="none"/>
<rect x="-200" y="-200" width="1200" height="1000" fill="black" stroke="none" onclick="close_window()"/>

<image x="0" y="48" width="800" height="552" preserveAspectRatio="none" overflow="visible" id="area_soba" xlink:href="room.svg"/>
<image x="-1843.9" y="48" width="800" height="552" preserveAspectRatio="none" overflow="visible" id="area_soba" xlink:href="room.svg"/>

<g id="stran_soba" display="inline">

	<g transform="translate(14,8)">
		<g id="ikone_navigator" stroke="none"  display="inline">
			<g id="iko_levo" onclick="levo()">
				<rect width="32" height="32" fill="#808080"/>
				<path d="M29 11L29 21L12 21L12 29L2 16L12 3L12 11z" fill="#ffffff"/>
			</g>
			<g id="iko_tloris" transform="translate(35,0)" onclick="tloris()">
				<rect width="32" height="32" fill="#808080"/>
				<circle cx="7" cy="16" r="5" fill="#ffffff"/>
				<path d="M12 10L28 4M12 22L28 28" stroke="#ffffff" stroke-width="3" stroke-linecap="round"/>
			</g>
			<g id="iko_desno" transform="translate(70)" onclick="desno()">
				<rect width="32" height="32" fill="#808080"/>
				<path d="M3 11L3 21L20 21L20 29L30 16L20 3L20 11z" fill="#ffffff"/>
			</g>
			<g id="iko_predsoba_help" transform="translate(200)" onclick="open_window('area_help')">
				<rect width="57" height="32" fill="#808080"/>
				<path fill="#ffffff" d="M3 3L3 15L5 15L5 10L9 10L9 15L11 15L11 3L9 3L9 8L5 8L5 3zM14 3L14 15L21 15L21 13L16 13L16 10L20 10L20 8L16 8L16 5L21 5L21 3zM24 3L24 15L30 15L30 13L26 13L26 3zM41 3L35 3L35 3L33 3L33 15L35 15L35 10L41 10zM35 5L39 5L39 8L35 8z"/>
				<path fill="#ffffff" d="M11 17L5 17L5 17L3 17L3 29L5 29L5 24L11 24zM5 19L9 19L9 22L5 22zM14 17L14 29L22 29L22 17zM16 19L20 19L20 27L16 27zM25 17L25 29L27 29L27 20L29 23L31 20L31 29L33 29L33 17L31 17L29 20L27 17zM36 17L36 29L44 29L44 17zM38 19L42 19L42 27L38 27zM47 17L47 29L54 29L54 27L49 27L49 19L54 19L54 17zM48 16L53 16L53 14L48 14z"/>
			</g>
			<g id="iko_predsoba_about" transform="translate(260)" onclick="predsoba_about()">
				<rect width="87" height="32" fill="#808080"/>
				<path fill="#ffffff" d="M3 3L3 15L5 15L5 10L9 10L9 15L11 15L11 3zM5 5L9 5L9 8L5 8zM14 3L14 15L22 15L22 3zM16 5L20 5L20 8L16 8zM16 10L20 10L20 13L16 13zM25 3L25 15L33 15L33 3zM27 5L31 5L31 13L27 13zM36 3L36 15L44 15L44 3L42 3L42 13L38 13L38 3zM55 3L47 3L47 5L50 5L50 15L52 15L52 5L55 5zM3 17L3 29L11 29L11 17zM5 19L9 19L9 27L5 27z"/>
				<path fill="#ffffff" d="M19 17L19 29L21 29L21 17zM26.5 27L32 19L32 17L24 17L24 19L29.5 19L24 27L24 29L32 29L32 27zM35 17L35 29L41 29L43 27L43 19L41 17zM37 19L40 19L41 20L41 26L40 27L37 27zM46 17L46 29L53 29L53 27L48 27L48 24L52 24L52 22L48 22L48 19L53 19L53 17zM56 17L56 29L62 29L62 27L58 27L58 17zM65 17L65 29L67 29L67 25L70.5 29L73 29L68 23L73 17L70.5 17L67 21L67 17zM76 17L76 29L84 29L84 17L82 17L82 27L78 27L78 17z"/>
			</g>
			<g id="iko_predsoba_contents" transform="translate(360)" onclick="predsoba_contents()">
				<rect width="88" height="32" fill="#808080"/>
				<path fill="#ffffff" d="M3 3L3 15L10 15L10 13L5 13L5 5L10 5L10 3zM13 3L13 15L21 15L21 3zM15 5L19 5L19 13L15 13zM24 15L26 15L26 7L30 15L32 15L32 3L30 3L30 11L26 3L24 3zM43 3L35 3L35 5L38 5L38 15L40 15L40 5L43 5zM45 3L45 15L52 15L52 13L47 13L47 10L51 10L51 8L47 8L47 5L52 5L52 3zM55 15L57 15L57 7L61 15L63 15L63 3L61 3L61 11L57 3L55 3zM74 3L66 3L66 5L69 5L69 15L71 15L71 5L74 5zM77 15L85 15L85 8L79 8L79 5L85 5L85 3L77 3L77 10L83 10L83 13L77 13z"/>
				<path fill="#ffffff" d="M3 17L3 29L5 29L5 25L8.5 29L11 29L6 23L11 17L8.5 17L5 21L5 17zM13 17L13 29L15 29L15 24L19 24L19 29L21 29L21 17zM15 19L19 19L19 22L15 22zM25.5 27L31 19L31 17L23 17L23 19L28.5 19L23 27L23 29L31 29L31 27zM33 17L33 29L35 29L35 24L39 24L39 29L41 29L41 17zM35 19L39 19L39 22L35 22zM44 17L44 29L50 29L50 27L46 27L46 17zM53 17L53 29L61 29L61 17zM55 19L59 19L59 27L55 27z"/>
			</g>
			<g id="iko_predsoba_index" transform="translate(451)" onclick="predsoba_index()">
				<rect width="104" height="32" fill="#808080"/>
				<path fill="#ffffff" d="M3 3L3 15L5 15L5 3zM7 15L9 15L9 7L13 15L15 15L15 3L13 3L13 11L9 3L7 3zM18 3L18 15L24 15L26 13L26 5L24 3zM20 5L23 5L24 6L24 12L23 13L20 13zM29 3L29 15L36 15L36 13L31 13L31 10L35 10L35 8L31 8L31 5L36 5L36 3zM45 15L47 15L44 9L47 3L45 3L43 7L41 3L39 3L42 9L39 15L41 15L43 11z"/>
				<path fill="#ffffff" d="M3 17L3 29L5 29L5 24L9 24L9 29L11 29L11 17zM5 19L9 19L9 22L5 22zM14 17L14 29L22 29L22 17zM16 19L20 19L20 22L16 22zM16 24L20 24L20 27L16 27zM25 17L25 29L32 29L32 27L27 27L27 19L32 19L32 17zM40 17L40 29L42 29L42 25L45.5 29L48 29L43 23L48 17L45.5 17L42 21L42 17zM51 17L51 29L53 29L53 24L57 24L57 29L59 29L59 17zM53 19L57 19L57 22L53 22zM64.5 27L70 19L70 17L62 17L62 19L67.5 19L62 27L62 29L70 29L70 27zM73 17L73 29L75 29L75 24L79 24L79 29L81 29L81 17zM75 19L79 19L79 22L75 22zM84 17L84 29L90 29L90 27L86 27L86 17zM93 17L93 29L101 29L101 17zM95 19L99 19L99 27L95 27z"/>
			</g>
		</g>
	</g>
</g>

<svg x="8" y="48" width="400" height="400" overflow="visible" id="area_tloris" display="none"/>

<g id="area_help" display="none" transform="translate(48,48)" fill="none" stroke="#00ff00" stroke-width="1" stroke-linecap="round" stroke-linejoin="round" font-size="16" font-family="IzIhandwriten01">
	<g id="Navigator">
		<rect x="0" y="0" width="400" height="342" rx="16" ry="16" fill="black" fill-opacity="0.85"/>
		<text x="16" y="32" font-size="32">Promenade - Sprehajanje</text>
		<g transform="translate(16,40)">
			<g>
				<path d="M32 0 L32 32 L0 32 L0 0 zM29 11 L29 21 L12 21 L12 29 L2 16 L12 3 L12 11 z"/>
				<text x="40" y="16">obrne pogled na levo</text>
				<text x="40" y="32">look to the left</text>
			</g>
			<g transform="translate(0,40)">
				<path d="M32 0 L32 32 L0 32 L0 0 zM3 11 L3 21 L20 21 L20 29 L30 16 L20 3 L20 11 z"/>
				<text x="40" y="16">obrne pogled na desno</text>
				<text x="40" y="32">look to the right</text>
			</g>
			<g transform="translate(0,80)">
				<rect width="32" height="32"/>
				<circle cx="7" cy="16" r="5"/>
				<path d="M12 10 L28 4 M12 22 L28 28"/>
				<text x="40" y="16">pokaže tloris sobe</text>
				<text x="40" y="32">shows the room's ground plan</text>
			</g>
		</g>
		<text x="16" y="170">
			<tspan x="16" dy="16">Uporaba tlorisa: Nad tlorisom pritisni in drži levo tipko</tspan>
			<tspan x="16" dy="16">na miški ter se pomikaj po tlorisu. Osvetljeni del tlori-</tspan>
			<tspan x="16" dy="16">sa je hkrati viden tudi v prvoosebnem pogledu. Ob</tspan>
			<tspan x="16" dy="16">izpustu tipke se tloris zapre.</tspan>
			<tspan x="16" dy="24">Groud plan usage: While over the ground plan press</tspan>
			<tspan x="16" dy="16">and hold the left mouse button and move ovet the</tspan>
			<tspan x="16" dy="16"> plan. The illuminated part of the ground plan can</tspan>
			<tspan x="16" dy="16">be simultaneously seen in the firs person view. At</tspan>
			<tspan x="16" dy="16">the button release the plan closes.</tspan>
			<tspan x="16" dy="16"></tspan>
		</text>
	</g>
	<g id="Manipulator" transform="translate(0,350)">
		<rect x="0" y="0" width="400" height="170" rx="16" ry="16" fill="black" fill-opacity="0.85"/>
		<text x="16" y="32" font-size="32">Manipulation - Upravljanje</text>
		<g transform="translate(16,40)">
			<g>
				<g stroke="white">
					<path d="M32 0 L32 32 L0 32 L0 0 zM29 11 L29 21 L12 21 L12 29 L2 16 L12 3 L12 11 z"/>
				</g>
				<text x="40" y="16">beli obrisi tvorijo predmete v sobi</text>
				<text x="40" y="32">white outlines form objects in the room</text>
			</g>
			<g transform="translate(0,40)">
				<g stroke="#FFA500" fill="#000000">
					<set attributeType="XML" attributeName="fill" to="#402900" begin="mouseover"/>
					<set attributeType="XML" attributeName="fill" to="#000000" begin="mouseout"/>
					<path d="M32 0 L32 32 L0 32 L0 0 zM3 11 L3 21 L20 21 L20 29 L30 16 L20 3 L20 11 z"/>
				</g>
				<text x="40" y="16">notranje in zunanje povezave so v oranžni barvi</text>
				<text x="40" y="32">internal and external links are in orange</text>
			</g>
			<g transform="translate(0,80)">
				<rect width="32" height="32"/>
				<circle cx="7" cy="16" r="5"/>
				<path d="M12 10 L28 4 M12 22 L28 28"/>
				<text x="40" y="16">tekst je v zeleni barvi</text>
				<text x="40" y="32">the text is green</text>
			</g>
		</g>
	</g>
</g>

</svg>